<svg width="50" height="50" viewBox="0 0 50 50" fill="none" xmlns="http://www.w3.org/2000/svg">
<path d="M16.5563 4.96875C13.58 5.78901 10.6239 6.68094 7.69064 7.64375C7.4228 7.73051 7.1847 7.89076 7.00348 8.10623C6.82226 8.32171 6.70521 8.58375 6.66564 8.8625C4.93439 21.8531 8.93439 31.3313 13.7063 37.575C15.7266 40.245 18.1357 42.5971 20.8531 44.5531C21.9344 45.3156 22.8906 45.8656 23.6438 46.2188C24.0188 46.3969 24.325 46.5156 24.5594 46.5875C24.6619 46.6235 24.7676 46.6496 24.875 46.6656C24.9812 46.6484 25.0857 46.6222 25.1875 46.5875C25.425 46.5156 25.7313 46.3969 26.1063 46.2188C26.8563 45.8656 27.8156 45.3125 28.8969 44.5531C31.6143 42.5971 34.0234 40.2449 36.0438 37.575C40.8156 31.3344 44.8156 21.8531 43.0844 8.8625C43.0452 8.58362 42.9283 8.32141 42.747 8.10587C42.5657 7.89034 42.3274 7.73019 42.0594 7.64375C40.025 6.97813 36.5906 5.89375 33.1938 4.97187C29.725 4.03125 26.5344 3.33438 24.875 3.33438C23.2188 3.33438 20.025 4.03125 16.5563 4.97187V4.96875ZM15.725 1.75C19.1156 0.828125 22.7188 0 24.875 0C27.0313 0 30.6344 0.828125 34.025 1.75C37.4938 2.6875 40.9906 3.79687 43.0469 4.46875C43.9066 4.75266 44.6688 5.27333 45.2459 5.97094C45.823 6.66855 46.1916 7.51481 46.3094 8.4125C48.1719 22.4031 43.85 32.7719 38.6063 39.6313C36.3826 42.5656 33.7312 45.1495 30.7406 47.2969C29.7066 48.0399 28.6109 48.6933 27.4656 49.25C26.5906 49.6625 25.65 50 24.875 50C24.1 50 23.1625 49.6625 22.2844 49.25C21.1391 48.6934 20.0435 48.0399 19.0094 47.2969C16.0189 45.1495 13.3675 42.5655 11.1438 39.6313C5.90002 32.7719 1.57814 22.4031 3.44064 8.4125C3.55841 7.51481 3.92703 6.66855 4.50413 5.97094C5.08124 5.27333 5.84343 4.75266 6.70314 4.46875C9.68812 3.49003 12.6963 2.58351 15.725 1.75Z" fill="#FEE600"/>
<path d="M33.7938 16.0813C33.9393 16.2264 34.0547 16.3988 34.1335 16.5887C34.2123 16.7785 34.2528 16.982 34.2528 17.1875C34.2528 17.393 34.2123 17.5965 34.1335 17.7864C34.0547 17.9762 33.9393 18.1486 33.7938 18.2938L24.4188 27.6688C24.2736 27.8143 24.1012 27.9297 23.9114 28.0085C23.7215 28.0873 23.518 28.1278 23.3125 28.1278C23.107 28.1278 22.9035 28.0873 22.7137 28.0085C22.5238 27.9297 22.3514 27.8143 22.2063 27.6688L17.5188 22.9813C17.3735 22.836 17.2583 22.6635 17.1796 22.4737C17.101 22.2839 17.0605 22.0805 17.0605 21.875C17.0605 21.6696 17.101 21.4661 17.1796 21.2763C17.2583 21.0865 17.3735 20.914 17.5188 20.7688C17.664 20.6235 17.8365 20.5083 18.0263 20.4296C18.2161 20.351 18.4196 20.3105 18.625 20.3105C18.8305 20.3105 19.0339 20.351 19.2237 20.4296C19.4135 20.5083 19.586 20.6235 19.7313 20.7688L23.3125 24.3531L31.5813 16.0813C31.7264 15.9358 31.8988 15.8203 32.0887 15.7415C32.2785 15.6628 32.482 15.6222 32.6875 15.6222C32.893 15.6222 33.0965 15.6628 33.2864 15.7415C33.4762 15.8203 33.6486 15.9358 33.7938 16.0813Z" fill="#FEE600"/>
</svg>
