<svg width="124" height="124" viewBox="0 0 124 124" fill="none" xmlns="http://www.w3.org/2000/svg">
<path fill-rule="evenodd" clip-rule="evenodd" d="M2.59457 2.59457L2 3.1889V62.0625V120.936L2.59457 121.53L3.1889 122.125H62.0625H120.936L121.53 121.53C122.317 120.744 122.317 119.631 121.53 118.845L120.936 118.25H63.4054H5.875V60.7196V3.1889L5.28043 2.59457C4.90577 2.21966 4.40928 2 3.9375 2C3.46572 2 2.96923 2.21966 2.59457 2.59457ZM33.7038 2.49261C25.7455 3.42285 18.353 8.41434 14.5836 15.4029C12.4267 19.4014 11.4453 23.2004 11.4453 27.5508C11.4453 39.0765 19.2249 49.0573 30.5181 52.02C37.4943 53.8504 45.6361 52.2263 51.5545 47.8241C65.2257 37.6546 65.2257 17.447 51.5545 7.27751C48.0352 4.6597 43.7708 3.00895 39.216 2.50109C36.6679 2.217 36.069 2.21603 33.7038 2.49261ZM41.6706 6.85368C49.1694 8.61123 55.3399 14.7475 57.3689 22.4648C57.9928 24.8376 57.9928 30.264 57.3689 32.6367C55.724 38.8929 51.2575 44.276 45.507 46.933C40.0288 49.4641 33.2572 49.4734 27.8116 46.9575C14.3014 40.7154 11.053 23.1425 21.4576 12.5834C26.7349 7.22762 34.2167 5.10678 41.6706 6.85368ZM35.1974 11.5991C34.8692 12.0164 34.6953 12.5921 34.6953 13.262V14.2867L33.2749 14.8045C28.8402 16.4215 26.8056 20.9102 28.7271 24.8378C29.8557 27.1446 31.8188 28.3466 35.9937 29.287C37.4747 29.6205 39.069 30.0533 39.5366 30.2487C41.308 30.9886 42.4131 32.7033 42.084 34.2017C41.8917 35.0772 40.6279 36.2274 39.3782 36.6638C37.8595 37.1944 35.0232 37.0612 33.6391 36.3945C32.443 35.8186 31.0625 34.2623 31.0625 33.4902C31.0625 32.8273 29.9387 31.9506 29.0887 31.9506C28.2042 31.9506 27.1875 32.9399 27.1877 33.8007C27.188 34.784 28.5459 37.2184 29.6699 38.2504C30.908 39.3872 32.149 40.083 33.6675 40.4918C34.6755 40.7633 34.6953 40.789 34.6953 41.8166C34.6953 43.2472 35.4047 44.1406 36.5403 44.1406C37.7745 44.1406 38.5703 43.2586 38.5703 41.8905V40.8294L40.084 40.4136C44.2656 39.2651 46.6003 35.9932 45.8616 32.3161C45.1772 28.9073 42.687 26.8078 38.207 25.8618C33.999 24.9732 32.5319 24.2243 32.032 22.709C31.513 21.1367 32.2558 19.5821 33.9312 18.7332C36.7609 17.2992 40.1402 18.2714 41.4843 20.9059C42.0249 21.9652 42.5812 22.3438 43.5981 22.3438C44.4969 22.3438 45.3523 21.4489 45.3494 20.5118C45.3462 19.5782 44.1617 17.539 43.0607 16.5724C42.1118 15.7393 40.3 14.7589 39.2363 14.5027C38.6316 14.3571 38.5703 14.2416 38.5703 13.246C38.5703 12.4051 38.4318 12.0115 37.9757 11.5555C37.1424 10.7221 35.8714 10.742 35.1974 11.5991ZM107.352 13.2707C104.754 13.4361 102.606 13.5833 102.578 13.5981C102.55 13.6129 102.304 13.8636 102.033 14.1551C101.344 14.8941 101.391 16.0655 102.137 16.7664C102.717 17.3109 102.833 17.3242 105.951 17.198L109.168 17.0682L107.957 18.1687C104.997 20.8589 98.7832 25.8831 93.4933 29.8627C75.3518 43.5105 55.2285 54.7015 32.8264 63.6009C29.6583 64.8595 25.6152 66.4061 23.8412 67.038C22.0674 67.6699 20.3837 68.3751 20.0994 68.6052C19.4261 69.1504 19.4026 70.5579 20.0548 71.2787C20.724 72.0181 22.002 71.8304 25.8555 70.4269C56.0105 59.444 83.252 43.988 105.752 25.0962C112.343 19.5615 111.711 20.0362 111.711 20.6235C111.711 20.8955 111.539 22.2725 111.33 23.6838C110.98 26.042 110.981 26.2977 111.343 26.8504C112.096 28.001 113.481 28.0836 114.413 27.0337C115.021 26.3481 116.684 14.8042 116.282 14.0505C115.601 12.7725 115.427 12.7572 107.352 13.2707ZM101.698 39.6502C100.499 40.0777 99.6505 40.8687 99.0906 42.082C98.6628 43.0086 98.6435 44.4671 98.6435 75.625C98.6435 106.711 98.6638 108.244 99.0881 109.178C99.6306 110.372 100.766 111.366 101.97 111.7C103.141 112.025 112.047 112.025 113.217 111.7C114.422 111.366 115.557 110.372 116.099 109.178C116.524 108.244 116.544 106.711 116.544 75.625C116.544 44.5393 116.524 43.006 116.099 42.0721C115.557 40.8776 114.422 39.8844 113.217 39.5497C111.835 39.1659 102.836 39.2443 101.698 39.6502ZM112.297 43.3189C112.643 43.4518 112.68 46.5235 112.68 75.625C112.68 104.726 112.643 107.798 112.297 107.931C111.797 108.123 103.39 108.123 102.891 107.931C102.544 107.798 102.508 104.726 102.508 75.6192C102.508 50.1139 102.571 43.4291 102.811 43.3322C103.247 43.1561 111.841 43.1438 112.297 43.3189ZM75.1404 53.0807C74.6739 53.3309 74.0915 53.7576 73.8459 54.0291C72.7229 55.2701 72.7403 54.825 72.7347 82.2852C72.7297 106.916 72.7514 108.248 73.1741 109.178C73.7166 110.372 74.8517 111.366 76.0563 111.7C77.2266 112.025 86.1328 112.025 87.303 111.7C88.5077 111.366 89.6428 110.372 90.1853 109.178C90.6079 108.248 90.63 106.906 90.63 82.1641C90.63 57.2531 90.6104 56.0858 90.1773 55.1321C89.9284 54.5838 89.3127 53.8209 88.8094 53.4368L87.8945 52.7383L81.9412 52.6821C76.515 52.6308 75.9132 52.6661 75.1404 53.0807ZM86.7063 82.149C86.7552 102.418 86.7051 107.725 86.4641 107.878C86.1112 108.102 77.547 108.15 76.9769 107.931C76.6308 107.798 76.5938 105.315 76.5938 82.2997C76.5938 68.2831 76.6686 56.7402 76.7601 56.6489C76.8517 56.5573 79.113 56.5118 81.7855 56.5479L86.6445 56.6133L86.7063 82.149ZM49.832 67.4318C48.8141 67.798 47.7911 68.7946 47.2639 69.9336C46.8398 70.8493 46.8151 71.9079 46.8115 89.3086C46.8086 102.006 46.8904 108.014 47.0747 108.678C47.4177 109.913 48.8451 111.34 50.0798 111.683C51.3176 112.027 60.1841 112.035 61.4137 111.694C62.7384 111.326 64.1196 109.99 64.4628 108.744C64.6713 107.988 64.7278 102.738 64.6759 88.9453C64.6076 70.7367 64.5912 70.152 64.1262 69.3831C63.8627 68.9472 63.2182 68.2933 62.6944 67.93L61.7421 67.2695L56.1502 67.2199C52.63 67.1886 50.2895 67.2671 49.832 67.4318ZM60.7925 89.4144C60.8416 103.87 60.791 107.725 60.5503 107.878C60.0361 108.204 51.3048 108.122 50.9703 107.787C50.7494 107.567 50.6797 103.157 50.6797 89.4217C50.6797 79.4801 50.7545 71.2714 50.8461 71.1801C50.9376 71.0886 53.1989 71.0431 55.8715 71.0791L60.7305 71.1445L60.7925 89.4144ZM23.894 81.4506C22.9521 81.7318 21.599 83.0955 21.2176 84.1483C20.824 85.2348 20.7729 107.281 21.1607 108.678C21.5036 109.913 22.9311 111.34 24.1657 111.683C25.4035 112.027 34.27 112.035 35.4996 111.694C36.7464 111.347 38.2591 109.939 38.5643 108.842C38.7144 108.3 38.8103 103.449 38.811 96.348C38.8125 85.0115 38.8004 84.7141 38.2988 83.6777C37.9898 83.0391 37.3943 82.3576 36.8036 81.9664L35.822 81.3164L30.2332 81.2716C27.1594 81.2469 24.3067 81.3273 23.894 81.4506ZM34.8794 96.4374C34.9288 105.273 34.877 107.725 34.6372 107.877C34.1223 108.204 25.391 108.122 25.0562 107.787C24.8388 107.57 24.7656 104.718 24.7656 96.4451C24.7656 90.3665 24.8405 85.3183 24.932 85.227C25.0236 85.1355 27.2849 85.0899 29.9574 85.126L34.8164 85.1914L34.8794 96.4374Z" fill="#FEE600" stroke="#FEE600" stroke-width="3"/>
</svg>
