<svg width="113" height="113" viewBox="0 0 113 113" fill="none" xmlns="http://www.w3.org/2000/svg">
<path fill-rule="evenodd" clip-rule="evenodd" d="M45.5856 10.1007C19.4089 17.1458 11.6413 19.3124 10.9697 19.7569C8.91183 21.1188 8.08778 23.6833 8.87454 26.2768C9.05209 26.8622 9.19843 27.3543 9.19973 27.3705C9.20103 27.387 8.76831 27.4653 8.23802 27.5448C5.83895 27.9045 3.01452 30.1349 1.91406 32.5385C1.6151 33.192 1.27581 34.3384 1.16047 35.0866C1.02996 35.9325 0.97381 49.3527 1.01153 70.592C1.06725 101.979 1.10172 104.823 1.43819 105.793C2.29367 108.261 4.33785 110.409 6.76272 111.388L8.00974 111.892L52.6699 111.956C85.3774 112.002 97.6763 111.954 98.6237 111.773C101.378 111.248 103.482 109.632 104.751 107.066L105.568 105.411L105.629 95.1801L105.689 84.949L106.929 84.7972C107.612 84.7135 108.49 84.495 108.882 84.3112C109.964 83.8034 111.036 82.4159 111.301 81.1804C111.586 79.8484 111.606 59.3635 111.323 58.1423C111.049 56.964 110.063 55.6454 109.074 55.134C108.616 54.8979 107.69 54.6453 107.014 54.5727L105.785 54.4407L105.677 44.1376L105.568 33.8348L104.867 32.4113C104.012 30.6737 102.267 28.9571 100.528 28.1423C99.3625 27.596 99.0347 27.5507 95.4994 27.4495L91.7174 27.3411L88.6571 15.9592C86.9739 9.69921 85.4403 4.28471 85.2488 3.927C84.8027 3.09211 83.6617 2.02027 82.706 1.5379C80.7924 0.572282 82.1783 0.252508 45.5856 10.1007ZM81.5689 3.9064C82.8159 4.55527 83.0572 5.07797 84.3814 9.99731C85.0875 12.6206 85.6499 14.7892 85.6308 14.8165C85.6117 14.8436 75.2122 17.6706 62.5207 21.0984L39.4453 27.3309L25.7437 27.3963C10.2208 27.4705 11.8772 27.6838 11.3757 25.5466C11.0271 24.0616 11.2255 23.0895 12.0393 22.2938C12.6108 21.7351 13.4513 21.4481 18.483 20.0935C57.9845 9.45922 79.8788 3.63129 80.3765 3.61806C80.7102 3.60917 81.2468 3.73882 81.5689 3.9064ZM86.4687 17.8562C86.7064 18.6315 88.9834 27.2066 88.9834 27.3257C88.9834 27.3937 80.0813 27.4464 69.2007 27.443C58.1427 27.4393 49.5615 27.3545 49.7431 27.2511C49.922 27.1492 56.8974 25.2375 65.2441 23.003C73.5908 20.7684 81.5906 18.6191 83.0215 18.2265C86.0941 17.3836 86.3168 17.3597 86.4687 17.8562ZM99.498 30.5692C100.816 31.1942 102.033 32.4271 102.625 33.7366C103.047 34.6712 103.066 35.1291 103.07 44.6185L103.075 54.5248L93.2651 54.5955L83.455 54.6661L81.7207 55.2524C79.3043 56.0692 77.4515 57.2172 75.6629 59.006C72.8955 61.7734 71.4768 64.9896 71.2695 68.9661C71.0443 73.2866 72.5419 77.1449 75.6454 80.2395C78.3866 82.9727 80.9996 84.2433 84.768 84.6749C85.8344 84.7972 90.3899 84.8978 94.8911 84.8989L103.075 84.9006V94.6179C103.075 105.387 103.057 105.546 101.678 107.158C101.28 107.623 100.432 108.293 99.7926 108.647L98.6308 109.29H53.4287H8.22653L7.31122 108.801C5.87559 108.034 4.93447 107.088 4.27866 105.753L3.6738 104.521V69.7248V34.929L4.23378 33.7353C4.931 32.2491 5.94409 31.2191 7.35479 30.5622L8.44333 30.0554H53.4287H98.414L99.498 30.5692ZM108.165 57.6683C108.45 57.9532 108.743 58.5141 108.817 58.9149C108.89 59.3158 108.921 64.4465 108.885 70.3163L108.82 80.9887L108.219 81.5897L107.618 82.1907H96.1869C87.2815 82.1907 84.4924 82.1256 83.5634 81.896C77.8636 80.4873 73.828 75.3976 73.8113 69.5969C73.8039 66.9759 74.9534 63.8171 76.7105 61.6305C77.4656 60.6907 79.5395 59.0665 80.8147 58.4159C81.2765 58.1802 82.3522 57.8047 83.2051 57.581C84.624 57.2092 85.729 57.1734 96.2016 57.1626L107.648 57.1506L108.165 57.6683ZM99.1128 64.102C95.6958 64.6585 93.6343 68.0833 94.6582 71.5011C94.9819 72.5814 96.3601 74.156 97.5191 74.7695C98.7761 75.4348 101.298 75.4381 102.548 74.776C104.636 73.6701 105.812 71.5355 105.624 69.1911C105.354 65.8336 102.444 63.5591 99.1128 64.102ZM101.621 67.0559C102.616 67.5573 103.113 68.5665 103.015 69.8892C102.74 73.609 97.4144 73.6944 97.058 69.9846C96.8997 68.3369 97.5416 67.3399 99.1167 66.7879C99.978 66.4859 100.629 66.5557 101.621 67.0559ZM19.1748 94.9357C18.5615 95.2442 18.315 96.4193 18.7529 96.9469C19.1407 97.4141 50.6444 97.4141 51.0322 96.9469C51.4701 96.4193 51.2236 95.2442 50.6103 94.9357C50.1904 94.7243 46.6533 94.6628 34.8925 94.6628C23.1318 94.6628 19.5947 94.7243 19.1748 94.9357Z" fill="#FEE600" stroke="#FEE600" stroke-width="2"/>
</svg>
