<svg width="123" height="109" viewBox="0 0 123 109" fill="none" xmlns="http://www.w3.org/2000/svg">
<path d="M44.4955 0.205819C41.8335 0.594129 38.9235 2.74366 37.8051 5.14781C36.9147 7.06194 36.7534 8.51828 36.7534 14.6468V20.371L26.0019 20.4496L15.2504 20.5282L13.3283 21.1829C6.33321 23.5652 1.38366 29.2819 0.247243 36.2909C0.0845886 37.2941 -0.00142372 47.7957 1.78274e-05 66.4423C0.00193989 90.6353 0.0567186 95.3144 0.354158 96.7376C1.48553 102.148 5.75515 106.719 11.2861 108.439L13.0881 109H61.5H109.912L111.714 108.439C115.923 107.13 119.47 104.176 121.291 100.464C121.563 99.9107 121.791 99.478 121.983 99.0296C123.055 96.5306 122.998 93.5478 123 66.4423C123.001 47.7957 122.915 37.2941 122.753 36.2909C121.616 29.2819 116.667 23.5652 109.672 21.1829L107.75 20.5282L96.9981 20.4496L86.2465 20.371V14.6468C86.2465 11.4985 86.1377 8.34781 86.0044 7.64525C85.2596 3.71407 82.1982 0.757868 78.2866 0.191874C76.4601 -0.0723686 46.3169 -0.0598661 44.4955 0.205819ZM78.3716 7.84145C78.9115 8.38171 78.9187 8.46827 78.9187 14.3333V20.2779H61.5H44.0813V14.3521C44.0813 8.91837 44.1183 8.38508 44.5267 7.93354C44.7718 7.6628 45.2043 7.39447 45.4878 7.33701C45.7713 7.27978 53.163 7.2466 61.914 7.26343L77.8243 7.29421L78.3716 7.84145ZM107.363 28.0872C110.524 29.035 113.17 31.3377 114.592 34.3782C115.609 36.5523 115.798 37.9048 115.798 42.9886C115.798 48.0982 115.564 49.3244 114.207 51.3309C113.358 52.5867 112.277 53.4739 110.753 54.1657C110.037 54.4905 75.8242 62.9559 75.2274 62.9559C75.112 62.9559 74.958 62.5104 74.885 61.9658C74.682 60.4512 73.3848 58.0411 72.2414 57.0543C69.9225 55.0527 68.6388 54.781 61.5 54.781C54.3612 54.781 53.0775 55.0527 50.7586 57.0543C49.6152 58.0411 48.318 60.4512 48.115 61.9658C48.042 62.5104 47.888 62.9559 47.7726 62.9559C47.1758 62.9559 12.9626 54.4905 12.2472 54.1657C9.92122 53.1099 8.27978 51.2188 7.57847 48.7863C7.13399 47.2458 7.04438 39.3277 7.44705 37.2027C8.23125 33.0638 11.326 29.5356 15.3705 28.1694L16.9322 27.6419L61.3539 27.6265C104.95 27.6116 105.805 27.6202 107.363 28.0872ZM8.81868 60.557C9.90224 61.0987 15.0327 62.4488 28.9787 65.8616C39.2673 68.3795 47.7556 70.5139 47.8418 70.6047C47.9278 70.6959 48.0396 71.9062 48.09 73.2948C48.1659 75.3823 48.2841 76.023 48.7738 76.9951C49.7019 78.8388 51.0207 80.1644 52.7983 81.04L54.4023 81.8304H61.5H68.5977L70.2016 81.04C71.9793 80.1644 73.2981 78.8388 74.2262 76.9951C74.7159 76.023 74.8341 75.3823 74.91 73.2948C74.9604 71.9062 75.0722 70.6959 75.1582 70.6047C75.2444 70.5139 83.7327 68.3795 94.0213 65.8616C107.967 62.4488 113.098 61.0987 114.181 60.557C114.981 60.1572 115.672 59.8302 115.717 59.8302C115.761 59.8302 115.798 67.5069 115.798 76.8896C115.798 88.5934 115.713 94.3488 115.528 95.2231C115.161 96.9578 114.57 98.0492 113.325 99.2935C111.988 100.629 110.427 101.405 108.527 101.681C107.679 101.803 87.2744 101.897 61.5 101.897C35.7256 101.897 15.3213 101.803 14.4734 101.681C12.5729 101.405 11.0118 100.629 9.6752 99.2935C8.42994 98.0492 7.83891 96.9578 7.47155 95.2231C7.28655 94.3488 7.20174 88.5934 7.20174 76.8896C7.20174 67.5069 7.2385 59.8302 7.28343 59.8302C7.32836 59.8302 8.01934 60.1572 8.81868 60.557ZM67.3073 62.3921C67.709 62.7558 67.7467 63.2699 67.7467 68.386C67.7467 73.1524 67.6907 74.0377 67.3692 74.3597C66.8044 74.9249 56.1956 74.9249 55.6307 74.3597C55.3095 74.038 55.2533 73.1563 55.2533 68.4276C55.2533 63.5969 55.3052 62.8162 55.6509 62.4339C56.0137 62.0326 56.5226 61.9941 61.4582 61.9941C66.155 61.9941 66.926 62.0465 67.3073 62.3921Z" fill="#FEE600"/>
<path d="M44.4955 0.205819C41.8335 0.594129 38.9235 2.74366 37.8051 5.14781C36.9147 7.06194 36.7534 8.51828 36.7534 14.6468V20.371L26.0019 20.4496L15.2504 20.5282L13.3283 21.1829C6.33321 23.5652 1.38366 29.2819 0.247243 36.2909C0.0845886 37.2941 -0.00142372 47.7957 1.78274e-05 66.4423C0.00193989 90.6353 0.0567186 95.3144 0.354158 96.7376C1.48553 102.148 5.75515 106.719 11.2861 108.439L13.0881 109H61.5H109.912L111.714 108.439C115.923 107.13 119.47 104.176 121.291 100.464C121.563 99.9107 121.791 99.478 121.983 99.0296C123.055 96.5306 122.998 93.5478 123 66.4423C123.001 47.7957 122.915 37.2941 122.753 36.2909C121.616 29.2819 116.667 23.5652 109.672 21.1829L107.75 20.5282L96.9981 20.4496L86.2465 20.371V14.6468C86.2465 11.4985 86.1377 8.34781 86.0044 7.64525C85.2596 3.71407 82.1982 0.757868 78.2866 0.191874C76.4601 -0.0723686 46.3169 -0.0598661 44.4955 0.205819ZM78.3716 7.84145C78.9115 8.38171 78.9187 8.46827 78.9187 14.3333V20.2779H61.5H44.0813V14.3521C44.0813 8.91837 44.1183 8.38508 44.5267 7.93354C44.7718 7.6628 45.2043 7.39447 45.4878 7.33701C45.7713 7.27978 53.163 7.2466 61.914 7.26343L77.8243 7.29421L78.3716 7.84145ZM107.363 28.0872C110.524 29.035 113.17 31.3377 114.592 34.3782C115.609 36.5523 115.798 37.9048 115.798 42.9886C115.798 48.0982 115.564 49.3244 114.207 51.3309C113.358 52.5867 112.277 53.4739 110.753 54.1657C110.037 54.4905 75.8242 62.9559 75.2274 62.9559C75.112 62.9559 74.958 62.5104 74.885 61.9658C74.682 60.4512 73.3848 58.0411 72.2414 57.0543C69.9225 55.0527 68.6388 54.781 61.5 54.781C54.3612 54.781 53.0775 55.0527 50.7586 57.0543C49.6152 58.0411 48.318 60.4512 48.115 61.9658C48.042 62.5104 47.888 62.9559 47.7726 62.9559C47.1758 62.9559 12.9626 54.4905 12.2472 54.1657C9.92122 53.1099 8.27978 51.2188 7.57847 48.7863C7.13399 47.2458 7.04438 39.3277 7.44705 37.2027C8.23125 33.0638 11.326 29.5356 15.3705 28.1694L16.9322 27.6419L61.3539 27.6265C104.95 27.6116 105.805 27.6202 107.363 28.0872ZM8.81868 60.557C9.90224 61.0987 15.0327 62.4488 28.9787 65.8616C39.2673 68.3795 47.7556 70.5139 47.8418 70.6047C47.9278 70.6959 48.0396 71.9062 48.09 73.2948C48.1659 75.3823 48.2841 76.023 48.7738 76.9951C49.7019 78.8388 51.0207 80.1644 52.7983 81.04L54.4023 81.8304H61.5H68.5977L70.2016 81.04C71.9793 80.1644 73.2981 78.8388 74.2262 76.9951C74.7159 76.023 74.8341 75.3823 74.91 73.2948C74.9604 71.9062 75.0722 70.6959 75.1582 70.6047C75.2444 70.5139 83.7327 68.3795 94.0213 65.8616C107.967 62.4488 113.098 61.0987 114.181 60.557C114.981 60.1572 115.672 59.8302 115.717 59.8302C115.761 59.8302 115.798 67.5069 115.798 76.8896C115.798 88.5934 115.713 94.3488 115.528 95.2231C115.161 96.9578 114.57 98.0492 113.325 99.2935C111.988 100.629 110.427 101.405 108.527 101.681C107.679 101.803 87.2744 101.897 61.5 101.897C35.7256 101.897 15.3213 101.803 14.4734 101.681C12.5729 101.405 11.0118 100.629 9.6752 99.2935C8.42994 98.0492 7.83891 96.9578 7.47155 95.2231C7.28655 94.3488 7.20174 88.5934 7.20174 76.8896C7.20174 67.5069 7.2385 59.8302 7.28343 59.8302C7.32836 59.8302 8.01934 60.1572 8.81868 60.557ZM67.3073 62.3921C67.709 62.7558 67.7467 63.2699 67.7467 68.386C67.7467 73.1524 67.6907 74.0377 67.3692 74.3597C66.8044 74.9249 56.1956 74.9249 55.6307 74.3597C55.3095 74.038 55.2533 73.1563 55.2533 68.4276C55.2533 63.5969 55.3052 62.8162 55.6509 62.4339C56.0137 62.0326 56.5226 61.9941 61.4582 61.9941C66.155 61.9941 66.926 62.0465 67.3073 62.3921Z" stroke="#FEE600"/>
</svg>
